{
    "asset" : {
        "generator" : "Khronos glTF Blender I/O v1.3.48",
        "version" : "2.0"
    },
    "scene" : 0,
    "scenes" : [
        {
            "name" : "Scene",
            "nodes" : [
                0
            ]
        }
    ],
    "nodes" : [
        {
            "mesh" : 0,
            "name" : "Soccer_Ball",
            "rotation" : [
                0.4130667448043823,
                0.12670622766017914,
                -0.6237465739250183,
                0.6513537168502808
            ],
            "scale" : [
                0.30000001192092896,
                0.30000001192092896,
                0.30000001192092896
            ],
            "translation" : [
                -0.23000000417232513,
                4,
                0
            ]
        }
    ],
    "materials" : [
        {
            "doubleSided" : true,
            "emissiveFactor" : [
                0,
                0,
                0
            ],
            "name" : "White",
            "normalTexture" : {
                "index" : 0,
                "texCoord" : 0
            },
            "pbrMetallicRoughness" : {
                "baseColorTexture" : {
                    "index" : 1,
                    "texCoord" : 0
                },
                "metallicFactor" : 0,
                "roughnessFactor" : 0.7642977237701416
            }
        },
        {
            "doubleSided" : true,
            "emissiveFactor" : [
                0,
                0,
                0
            ],
            "name" : "Black",
            "normalTexture" : {
                "index" : 2,
                "texCoord" : 0
            },
            "pbrMetallicRoughness" : {
                "baseColorTexture" : {
                    "index" : 3,
                    "texCoord" : 0
                },
                "metallicFactor" : 0,
                "roughnessFactor" : 0.7642977237701416
            }
        },
        {
            "doubleSided" : true,
            "emissiveFactor" : [
                0,
                0,
                0
            ],
            "name" : "wire_086086086",
            "pbrMetallicRoughness" : {
                "baseColorFactor" : [
                    0.33730000257492065,
                    0.33730000257492065,
                    0.33730000257492065,
                    1
                ],
                "metallicFactor" : 0,
                "roughnessFactor" : 0.8114382028579712
            }
        }
    ],
    "meshes" : [
        {
            "name" : "Soccer_Ball",
            "primitives" : [
                {
                    "attributes" : {
                        "POSITION" : 0,
                        "NORMAL" : 1,
                        "TEXCOORD_0" : 2
                    },
                    "indices" : 3,
                    "material" : 0
                },
                {
                    "attributes" : {
                        "POSITION" : 4,
                        "NORMAL" : 5,
                        "TEXCOORD_0" : 6
                    },
                    "indices" : 7,
                    "material" : 1
                },
                {
                    "attributes" : {
                        "POSITION" : 8,
                        "NORMAL" : 9,
                        "TEXCOORD_0" : 10
                    },
                    "indices" : 11,
                    "material" : 2
                }
            ]
        }
    ],
    "textures" : [
        {
            "source" : 0
        },
        {
            "source" : 1
        },
        {
            "source" : 2
        },
        {
            "source" : 3
        }
    ],
    "images" : [
        {
            "mimeType" : "image/jpeg",
            "name" : "Leather_White_normal",
            "uri" : "Leather_White_normal.jpg"
        },
        {
            "mimeType" : "image/jpeg",
            "name" : "Leather_White_albedo",
            "uri" : "Leather_White_albedo.jpg"
        },
        {
            "mimeType" : "image/jpeg",
            "name" : "Leather_Black_normal",
            "uri" : "Leather_Black_normal.jpg"
        },
        {
            "mimeType" : "image/jpeg",
            "name" : "Leather_Black_albedo",
            "uri" : "Leather_Black_albedo.jpg"
        }
    ],
    "accessors" : [
        {
            "bufferView" : 0,
            "componentType" : 5126,
            "count" : 14981,
            "max" : [
                3.4101662635803223,
                3.4340384006500244,
                3.4567646980285645
            ],
            "min" : [
                -3.476233959197998,
                -3.452361822128296,
                -3.4296352863311768
            ],
            "type" : "VEC3"
        },
        {
            "bufferView" : 1,
            "componentType" : 5126,
            "count" : 14981,
            "type" : "VEC3"
        },
        {
            "bufferView" : 2,
            "componentType" : 5126,
            "count" : 14981,
            "type" : "VEC2"
        },
        {
            "bufferView" : 3,
            "componentType" : 5123,
            "count" : 63360,
            "type" : "SCALAR"
        },
        {
            "bufferView" : 4,
            "componentType" : 5126,
            "count" : 7617,
            "max" : [
                3.342266082763672,
                3.366138219833374,
                3.388864755630493
            ],
            "min" : [
                -3.4083337783813477,
                -3.3844616413116455,
                -3.3617351055145264
            ],
            "type" : "VEC3"
        },
        {
            "bufferView" : 5,
            "componentType" : 5126,
            "count" : 7617,
            "type" : "VEC3"
        },
        {
            "bufferView" : 6,
            "componentType" : 5126,
            "count" : 7617,
            "type" : "VEC2"
        },
        {
            "bufferView" : 7,
            "componentType" : 5123,
            "count" : 31680,
            "type" : "SCALAR"
        },
        {
            "bufferView" : 8,
            "componentType" : 5126,
            "count" : 16026,
            "max" : [
                3.3989663124084473,
                3.4228382110595703,
                3.4455647468566895
            ],
            "min" : [
                -3.465033531188965,
                -3.441161632537842,
                -3.4184353351593018
            ],
            "type" : "VEC3"
        },
        {
            "bufferView" : 9,
            "componentType" : 5126,
            "count" : 16026,
            "type" : "VEC3"
        },
        {
            "bufferView" : 10,
            "componentType" : 5126,
            "count" : 16026,
            "type" : "VEC2"
        },
        {
            "bufferView" : 11,
            "componentType" : 5123,
            "count" : 86400,
            "type" : "SCALAR"
        }
    ],
    "bufferViews" : [
        {
            "buffer" : 0,
            "byteLength" : 179772,
            "byteOffset" : 0
        },
        {
            "buffer" : 0,
            "byteLength" : 179772,
            "byteOffset" : 179772
        },
        {
            "buffer" : 0,
            "byteLength" : 119848,
            "byteOffset" : 359544
        },
        {
            "buffer" : 0,
            "byteLength" : 126720,
            "byteOffset" : 479392
        },
        {
            "buffer" : 0,
            "byteLength" : 91404,
            "byteOffset" : 606112
        },
        {
            "buffer" : 0,
            "byteLength" : 91404,
            "byteOffset" : 697516
        },
        {
            "buffer" : 0,
            "byteLength" : 60936,
            "byteOffset" : 788920
        },
        {
            "buffer" : 0,
            "byteLength" : 63360,
            "byteOffset" : 849856
        },
        {
            "buffer" : 0,
            "byteLength" : 192312,
            "byteOffset" : 913216
        },
        {
            "buffer" : 0,
            "byteLength" : 192312,
            "byteOffset" : 1105528
        },
        {
            "buffer" : 0,
            "byteLength" : 128208,
            "byteOffset" : 1297840
        },
        {
            "buffer" : 0,
            "byteLength" : 172800,
            "byteOffset" : 1426048
        }
    ],
    "buffers" : [
        {
            "byteLength" : 1598848,
            "uri" : "chadBaller.bin"
        }
    ]
}
