{
    "asset" : {
        "generator" : "Khronos glTF Blender I/O v1.3.48",
        "version" : "2.0"
    },
    "scene" : 0,
    "scenes" : [
        {
            "name" : "Scene",
            "nodes" : [
                0,
                1,
                2
            ]
        }
    ],
    "nodes" : [
        {
            "mesh" : 0,
            "name" : "pipe",
            "rotation" : [
                0.7071068286895752,
                0,
                0,
                0.7071068286895752
            ],
            "scale" : [
                0.5,
                0.5,
                0.4
            ],
            "translation" : [
                -0.11790752410888672,
                0,
                -14.250849723815918
            ]
        },
        {
            "mesh" : 1,
            "name" : "spikey",
            "translation" : [
                6.195015907287598,
                10.251790046691895,
                -0.5360888242721558
            ]
        },
        {
            "mesh" : 2,
            "name" : "baller",
            "rotation" : [
                0,
                0.7071068286895752,
                -0.7071068286895752,
                -3.090862321641907e-08
            ]
        }
    ],
    "materials" : [
        {
            "doubleSided" : true,
            "emissiveFactor" : [
                0,
                0,
                0
            ],
            "name" : "mesh0164mat",
            "pbrMetallicRoughness" : {
                "baseColorTexture" : {
                    "index" : 0,
                    "texCoord" : 0
                },
                "metallicFactor" : 0,
                "roughnessFactor" : 1
            }
        },
        {
            "doubleSided" : true,
            "emissiveFactor" : [
                0,
                0,
                0
            ],
            "name" : "hcmn_obj_thornball_HD_ball",
            "pbrMetallicRoughness" : {
                "baseColorTexture" : {
                    "index" : 1,
                    "texCoord" : 0
                },
                "metallicFactor" : 1,
                "roughnessFactor" : 0.5
            }
        },
        {
            "doubleSided" : true,
            "emissiveFactor" : [
                0,
                0,
                0
            ],
            "name" : "cmn_obj_thornball_HD_body",
            "pbrMetallicRoughness" : {
                "baseColorTexture" : {
                    "index" : 2,
                    "texCoord" : 0
                },
                "metallicFactor" : 1,
                "roughnessFactor" : 0.5
            }
        },
        {
            "doubleSided" : true,
            "emissiveFactor" : [
                0,
                0,
                0
            ],
            "name" : "cmn_obj_thornball_HD_thorn",
            "pbrMetallicRoughness" : {
                "baseColorTexture" : {
                    "index" : 3,
                    "texCoord" : 0
                },
                "metallicFactor" : 1,
                "roughnessFactor" : 0.5
            }
        },
        {
            "doubleSided" : true,
            "emissiveFactor" : [
                0,
                0,
                0
            ],
            "name" : "Material__344",
            "pbrMetallicRoughness" : {
                "baseColorTexture" : {
                    "index" : 4,
                    "texCoord" : 0
                },
                "metallicFactor" : 0,
                "roughnessFactor" : 0.8945907354354858
            }
        },
        {
            "doubleSided" : true,
            "emissiveFactor" : [
                0,
                0,
                0
            ],
            "name" : "Material__343",
            "pbrMetallicRoughness" : {
                "baseColorTexture" : {
                    "index" : 5,
                    "texCoord" : 0
                },
                "metallicFactor" : 0,
                "roughnessFactor" : 0.8945907354354858
            }
        },
        {
            "doubleSided" : true,
            "emissiveFactor" : [
                0,
                0,
                0
            ],
            "name" : "Material__345",
            "pbrMetallicRoughness" : {
                "baseColorTexture" : {
                    "index" : 6,
                    "texCoord" : 0
                },
                "metallicFactor" : 0,
                "roughnessFactor" : 0.8945907354354858
            }
        },
        {
            "doubleSided" : true,
            "emissiveFactor" : [
                0,
                0,
                0
            ],
            "name" : "Material__342",
            "pbrMetallicRoughness" : {
                "baseColorTexture" : {
                    "index" : 7,
                    "texCoord" : 0
                },
                "metallicFactor" : 0,
                "roughnessFactor" : 0.8945907354354858
            }
        },
        {
            "doubleSided" : true,
            "emissiveFactor" : [
                0,
                0,
                0
            ],
            "name" : "Material__340",
            "pbrMetallicRoughness" : {
                "baseColorTexture" : {
                    "index" : 8,
                    "texCoord" : 0
                },
                "metallicFactor" : 0,
                "roughnessFactor" : 0.8945907354354858
            }
        },
        {
            "doubleSided" : true,
            "emissiveFactor" : [
                0,
                0,
                0
            ],
            "name" : "Material__341",
            "pbrMetallicRoughness" : {
                "baseColorTexture" : {
                    "index" : 9,
                    "texCoord" : 0
                },
                "metallicFactor" : 0,
                "roughnessFactor" : 0.8945907354354858
            }
        }
    ],
    "meshes" : [
        {
            "name" : "mesh0164",
            "primitives" : [
                {
                    "attributes" : {
                        "POSITION" : 0,
                        "NORMAL" : 1,
                        "TEXCOORD_0" : 2
                    },
                    "indices" : 3,
                    "material" : 0
                }
            ]
        },
        {
            "name" : "cmn_obj_thornball_HD_mesh",
            "primitives" : [
                {
                    "attributes" : {
                        "POSITION" : 4,
                        "NORMAL" : 5,
                        "TEXCOORD_0" : 6,
                        "COLOR_0" : 7
                    },
                    "indices" : 8,
                    "material" : 1
                },
                {
                    "attributes" : {
                        "POSITION" : 9,
                        "NORMAL" : 10,
                        "TEXCOORD_0" : 11,
                        "COLOR_0" : 12
                    },
                    "indices" : 13,
                    "material" : 2
                },
                {
                    "attributes" : {
                        "POSITION" : 14,
                        "NORMAL" : 15,
                        "TEXCOORD_0" : 16,
                        "COLOR_0" : 17
                    },
                    "indices" : 18,
                    "material" : 3
                }
            ]
        },
        {
            "name" : "moon",
            "primitives" : [
                {
                    "attributes" : {
                        "POSITION" : 19,
                        "NORMAL" : 20,
                        "TEXCOORD_0" : 21
                    },
                    "indices" : 22,
                    "material" : 4
                },
                {
                    "attributes" : {
                        "POSITION" : 23,
                        "NORMAL" : 24,
                        "TEXCOORD_0" : 25
                    },
                    "indices" : 26,
                    "material" : 5
                },
                {
                    "attributes" : {
                        "POSITION" : 27,
                        "NORMAL" : 28,
                        "TEXCOORD_0" : 29
                    },
                    "indices" : 30,
                    "material" : 6
                },
                {
                    "attributes" : {
                        "POSITION" : 31,
                        "NORMAL" : 32,
                        "TEXCOORD_0" : 33
                    },
                    "indices" : 34,
                    "material" : 7
                },
                {
                    "attributes" : {
                        "POSITION" : 35,
                        "NORMAL" : 36,
                        "TEXCOORD_0" : 37
                    },
                    "indices" : 38,
                    "material" : 8
                },
                {
                    "attributes" : {
                        "POSITION" : 39,
                        "NORMAL" : 40,
                        "TEXCOORD_0" : 41
                    },
                    "indices" : 42,
                    "material" : 9
                }
            ]
        }
    ],
    "textures" : [
        {
            "source" : 0
        },
        {
            "source" : 1
        },
        {
            "source" : 2
        },
        {
            "source" : 2
        },
        {
            "source" : 3
        },
        {
            "source" : 3
        },
        {
            "source" : 4
        },
        {
            "source" : 3
        },
        {
            "source" : 5
        },
        {
            "source" : 6
        }
    ],
    "images" : [
        {
            "mimeType" : "image/png",
            "name" : "t0164_0",
            "uri" : "t0164_0.png"
        },
        {
            "mimeType" : "image/png",
            "name" : "cmn_metal_ms_thornball_dif",
            "uri" : "cmn_metal_ms_thornball_dif.png"
        },
        {
            "mimeType" : "image/png",
            "name" : "cmn_metal_ms_thornparts_dif",
            "uri" : "cmn_metal_ms_thornparts_dif.png"
        },
        {
            "mimeType" : "image/png",
            "name" : "706120E1_c",
            "uri" : "706120E1_c.png"
        },
        {
            "mimeType" : "image/png",
            "name" : "AF6C35E_c",
            "uri" : "AF6C35E_c.png"
        },
        {
            "mimeType" : "image/png",
            "name" : "4AF31E27_c",
            "uri" : "4AF31E27_c.png"
        },
        {
            "mimeType" : "image/png",
            "name" : "4D41A950_c",
            "uri" : "4D41A950_c.png"
        }
    ],
    "accessors" : [
        {
            "bufferView" : 0,
            "componentType" : 5126,
            "count" : 233,
            "max" : [
                5,
                5,
                0
            ],
            "min" : [
                -5,
                -5,
                -10
            ],
            "type" : "VEC3"
        },
        {
            "bufferView" : 1,
            "componentType" : 5126,
            "count" : 233,
            "type" : "VEC3"
        },
        {
            "bufferView" : 2,
            "componentType" : 5126,
            "count" : 233,
            "type" : "VEC2"
        },
        {
            "bufferView" : 3,
            "componentType" : 5123,
            "count" : 432,
            "type" : "SCALAR"
        },
        {
            "bufferView" : 4,
            "componentType" : 5126,
            "count" : 55,
            "max" : [
                0.6310366988182068,
                0.6155003905296326,
                0.6416969299316406
            ],
            "min" : [
                -0.6310366988182068,
                -0.6155002117156982,
                -0.6416969299316406
            ],
            "type" : "VEC3"
        },
        {
            "bufferView" : 5,
            "componentType" : 5126,
            "count" : 55,
            "type" : "VEC3"
        },
        {
            "bufferView" : 6,
            "componentType" : 5126,
            "count" : 55,
            "type" : "VEC2"
        },
        {
            "bufferView" : 7,
            "componentType" : 5126,
            "count" : 55,
            "type" : "VEC4"
        },
        {
            "bufferView" : 8,
            "componentType" : 5123,
            "count" : 240,
            "type" : "SCALAR"
        },
        {
            "bufferView" : 9,
            "componentType" : 5126,
            "count" : 168,
            "max" : [
                0.703798234462738,
                0.674572229385376,
                0.6387091279029846
            ],
            "min" : [
                -0.703798234462738,
                -0.6745724081993103,
                -0.6387091279029846
            ],
            "type" : "VEC3"
        },
        {
            "bufferView" : 10,
            "componentType" : 5126,
            "count" : 168,
            "type" : "VEC3"
        },
        {
            "bufferView" : 11,
            "componentType" : 5126,
            "count" : 168,
            "type" : "VEC2"
        },
        {
            "bufferView" : 12,
            "componentType" : 5126,
            "count" : 168,
            "type" : "VEC4"
        },
        {
            "bufferView" : 13,
            "componentType" : 5123,
            "count" : 336,
            "type" : "SCALAR"
        },
        {
            "bufferView" : 14,
            "componentType" : 5126,
            "count" : 184,
            "max" : [
                1.140550971031189,
                1.0296850204467773,
                0.9379618167877197
            ],
            "min" : [
                -1.140550971031189,
                -1.0296859741210938,
                -0.9379618167877197
            ],
            "type" : "VEC3"
        },
        {
            "bufferView" : 15,
            "componentType" : 5126,
            "count" : 184,
            "type" : "VEC3"
        },
        {
            "bufferView" : 16,
            "componentType" : 5126,
            "count" : 184,
            "type" : "VEC2"
        },
        {
            "bufferView" : 17,
            "componentType" : 5126,
            "count" : 184,
            "type" : "VEC4"
        },
        {
            "bufferView" : 18,
            "componentType" : 5123,
            "count" : 546,
            "type" : "SCALAR"
        },
        {
            "bufferView" : 19,
            "componentType" : 5126,
            "count" : 410,
            "max" : [
                0.5671059489250183,
                0.5517700910568237,
                0.7855849862098694
            ],
            "min" : [
                -0.5671940445899963,
                -0.5797299146652222,
                -0.7844150066375732
            ],
            "type" : "VEC3"
        },
        {
            "bufferView" : 20,
            "componentType" : 5126,
            "count" : 410,
            "type" : "VEC3"
        },
        {
            "bufferView" : 21,
            "componentType" : 5126,
            "count" : 410,
            "type" : "VEC2"
        },
        {
            "bufferView" : 22,
            "componentType" : 5123,
            "count" : 648,
            "type" : "SCALAR"
        },
        {
            "bufferView" : 23,
            "componentType" : 5126,
            "count" : 422,
            "max" : [
                0.7999059557914734,
                0.6009700894355774,
                0.5677850246429443
            ],
            "min" : [
                -0.7998940944671631,
                -0.8137299418449402,
                -0.5666149854660034
            ],
            "type" : "VEC3"
        },
        {
            "bufferView" : 24,
            "componentType" : 5126,
            "count" : 422,
            "type" : "VEC3"
        },
        {
            "bufferView" : 25,
            "componentType" : 5126,
            "count" : 422,
            "type" : "VEC2"
        },
        {
            "bufferView" : 26,
            "componentType" : 5123,
            "count" : 588,
            "type" : "SCALAR"
        },
        {
            "bufferView" : 27,
            "componentType" : 5126,
            "count" : 200,
            "max" : [
                0.5666059255599976,
                0.9323700666427612,
                0.446384996175766
            ],
            "min" : [
                -0.5646940469741821,
                0.38547006249427795,
                -0.5660150051116943
            ],
            "type" : "VEC3"
        },
        {
            "bufferView" : 28,
            "componentType" : 5126,
            "count" : 200,
            "type" : "VEC3"
        },
        {
            "bufferView" : 29,
            "componentType" : 5126,
            "count" : 200,
            "type" : "VEC2"
        },
        {
            "bufferView" : 30,
            "componentType" : 5123,
            "count" : 210,
            "type" : "SCALAR"
        },
        {
            "bufferView" : 31,
            "componentType" : 5126,
            "count" : 30,
            "max" : [
                0.2545059323310852,
                0.77277010679245,
                0.6661850214004517
            ],
            "min" : [
                -0.2544940710067749,
                0.39607006311416626,
                0.3498850166797638
            ],
            "type" : "VEC3"
        },
        {
            "bufferView" : 32,
            "componentType" : 5126,
            "count" : 30,
            "type" : "VEC3"
        },
        {
            "bufferView" : 33,
            "componentType" : 5126,
            "count" : 30,
            "type" : "VEC2"
        },
        {
            "bufferView" : 34,
            "componentType" : 5123,
            "count" : 30,
            "type" : "SCALAR"
        },
        {
            "bufferView" : 35,
            "componentType" : 5126,
            "count" : 18,
            "max" : [
                0.33700594305992126,
                0.7336700558662415,
                0.39818501472473145
            ],
            "min" : [
                -0.3364940583705902,
                0.5874700546264648,
                0.18778502941131592
            ],
            "type" : "VEC3"
        },
        {
            "bufferView" : 36,
            "componentType" : 5126,
            "count" : 18,
            "type" : "VEC3"
        },
        {
            "bufferView" : 37,
            "componentType" : 5126,
            "count" : 18,
            "type" : "VEC2"
        },
        {
            "bufferView" : 38,
            "componentType" : 5123,
            "count" : 18,
            "type" : "SCALAR"
        },
        {
            "bufferView" : 39,
            "componentType" : 5126,
            "count" : 12,
            "max" : [
                0.4548059403896332,
                0.672770082950592,
                -0.0583149790763855
            ],
            "min" : [
                -0.45219406485557556,
                0.537070095539093,
                -0.2387150526046753
            ],
            "type" : "VEC3"
        },
        {
            "bufferView" : 40,
            "componentType" : 5126,
            "count" : 12,
            "type" : "VEC3"
        },
        {
            "bufferView" : 41,
            "componentType" : 5126,
            "count" : 12,
            "type" : "VEC2"
        },
        {
            "bufferView" : 42,
            "componentType" : 5123,
            "count" : 12,
            "type" : "SCALAR"
        }
    ],
    "bufferViews" : [
        {
            "buffer" : 0,
            "byteLength" : 2796,
            "byteOffset" : 0
        },
        {
            "buffer" : 0,
            "byteLength" : 2796,
            "byteOffset" : 2796
        },
        {
            "buffer" : 0,
            "byteLength" : 1864,
            "byteOffset" : 5592
        },
        {
            "buffer" : 0,
            "byteLength" : 864,
            "byteOffset" : 7456
        },
        {
            "buffer" : 0,
            "byteLength" : 660,
            "byteOffset" : 8320
        },
        {
            "buffer" : 0,
            "byteLength" : 660,
            "byteOffset" : 8980
        },
        {
            "buffer" : 0,
            "byteLength" : 440,
            "byteOffset" : 9640
        },
        {
            "buffer" : 0,
            "byteLength" : 880,
            "byteOffset" : 10080
        },
        {
            "buffer" : 0,
            "byteLength" : 480,
            "byteOffset" : 10960
        },
        {
            "buffer" : 0,
            "byteLength" : 2016,
            "byteOffset" : 11440
        },
        {
            "buffer" : 0,
            "byteLength" : 2016,
            "byteOffset" : 13456
        },
        {
            "buffer" : 0,
            "byteLength" : 1344,
            "byteOffset" : 15472
        },
        {
            "buffer" : 0,
            "byteLength" : 2688,
            "byteOffset" : 16816
        },
        {
            "buffer" : 0,
            "byteLength" : 672,
            "byteOffset" : 19504
        },
        {
            "buffer" : 0,
            "byteLength" : 2208,
            "byteOffset" : 20176
        },
        {
            "buffer" : 0,
            "byteLength" : 2208,
            "byteOffset" : 22384
        },
        {
            "buffer" : 0,
            "byteLength" : 1472,
            "byteOffset" : 24592
        },
        {
            "buffer" : 0,
            "byteLength" : 2944,
            "byteOffset" : 26064
        },
        {
            "buffer" : 0,
            "byteLength" : 1092,
            "byteOffset" : 29008
        },
        {
            "buffer" : 0,
            "byteLength" : 4920,
            "byteOffset" : 30100
        },
        {
            "buffer" : 0,
            "byteLength" : 4920,
            "byteOffset" : 35020
        },
        {
            "buffer" : 0,
            "byteLength" : 3280,
            "byteOffset" : 39940
        },
        {
            "buffer" : 0,
            "byteLength" : 1296,
            "byteOffset" : 43220
        },
        {
            "buffer" : 0,
            "byteLength" : 5064,
            "byteOffset" : 44516
        },
        {
            "buffer" : 0,
            "byteLength" : 5064,
            "byteOffset" : 49580
        },
        {
            "buffer" : 0,
            "byteLength" : 3376,
            "byteOffset" : 54644
        },
        {
            "buffer" : 0,
            "byteLength" : 1176,
            "byteOffset" : 58020
        },
        {
            "buffer" : 0,
            "byteLength" : 2400,
            "byteOffset" : 59196
        },
        {
            "buffer" : 0,
            "byteLength" : 2400,
            "byteOffset" : 61596
        },
        {
            "buffer" : 0,
            "byteLength" : 1600,
            "byteOffset" : 63996
        },
        {
            "buffer" : 0,
            "byteLength" : 420,
            "byteOffset" : 65596
        },
        {
            "buffer" : 0,
            "byteLength" : 360,
            "byteOffset" : 66016
        },
        {
            "buffer" : 0,
            "byteLength" : 360,
            "byteOffset" : 66376
        },
        {
            "buffer" : 0,
            "byteLength" : 240,
            "byteOffset" : 66736
        },
        {
            "buffer" : 0,
            "byteLength" : 60,
            "byteOffset" : 66976
        },
        {
            "buffer" : 0,
            "byteLength" : 216,
            "byteOffset" : 67036
        },
        {
            "buffer" : 0,
            "byteLength" : 216,
            "byteOffset" : 67252
        },
        {
            "buffer" : 0,
            "byteLength" : 144,
            "byteOffset" : 67468
        },
        {
            "buffer" : 0,
            "byteLength" : 36,
            "byteOffset" : 67612
        },
        {
            "buffer" : 0,
            "byteLength" : 144,
            "byteOffset" : 67648
        },
        {
            "buffer" : 0,
            "byteLength" : 144,
            "byteOffset" : 67792
        },
        {
            "buffer" : 0,
            "byteLength" : 96,
            "byteOffset" : 67936
        },
        {
            "buffer" : 0,
            "byteLength" : 24,
            "byteOffset" : 68032
        }
    ],
    "buffers" : [
        {
            "byteLength" : 68056,
            "uri" : "scene.bin"
        }
    ]
}
